<svg xmlns="http://www.w3.org/2000/svg" viewBox="0 0 1254 1254">
  <defs>
    <linearGradient id="roseGrad" x1="0%" y1="0%" x2="0%" y2="100%">
      <stop offset="0%" stop-color="#ea8ba0"/>
      <stop offset="45%" stop-color="#d9506f"/>
      <stop offset="100%" stop-color="#6f1230"/>
    </linearGradient>
  </defs>
  <path d="M605.91,929.39 C603.04,925.93 589.77,915.78 577.93,907.97 C569.69,902.54 553.88,894.06 531.00,882.81 C512.02,873.48 490.80,862.45 483.83,858.30 C432.19,827.57 394.96,782.50 374.96,726.50 C368.42,708.19 363.83,689.13 360.86,668.00 C358.91,654.11 359.18,610.84 361.30,595.71 C363.69,578.72 365.14,570.81 365.78,571.44 C366.08,571.75 367.33,575.95 368.55,580.77 C373.27,599.47 382.59,619.26 394.69,636.29 C401.37,645.69 423.21,668.13 433.50,676.17 C444.93,685.10 458.54,694.11 481.68,708.07 C508.02,723.96 522.21,733.57 535.50,744.52 C575.97,777.88 599.07,819.96 606.58,874.00 C608.43,887.33 609.73,931.00 608.28,931.00 C607.71,931.00 606.64,930.27 605.91,929.39 Z M645.34,908.96 C646.33,875.56 649.33,856.07 657.03,833.00 C666.40,804.91 679.98,782.56 700.99,760.65 C716.85,744.12 735.85,729.93 767.50,710.98 C806.22,687.81 821.06,677.00 839.53,658.53 C863.23,634.82 877.95,610.06 885.11,581.83 C888.05,570.24 888.20,569.97 889.10,574.50 C893.04,594.44 894.40,609.33 894.43,633.00 C894.46,647.44 893.95,661.40 893.20,667.00 C882.27,748.48 842.71,812.01 776.42,854.56 C769.86,858.77 753.02,867.80 739.00,874.64 C684.66,901.14 673.88,907.52 648.90,927.96 L644.67,931.43 L645.34,908.96 Z M626.06,782.36 C616.63,764.84 594.33,736.82 578.38,722.46 C557.19,703.37 541.18,691.97 507.50,671.96 C459.46,643.42 433.49,618.90 417.49,587.00 C406.78,565.65 403.06,551.19 402.31,528.00 C401.85,514.18 402.10,509.55 403.82,499.50 C412.98,445.95 448.52,398.82 502.50,368.65 C512.62,362.99 533.63,353.71 535.15,354.22 C535.61,354.37 533.04,358.10 529.45,362.50 C511.55,384.42 499.63,407.21 493.88,430.50 C490.94,442.42 490.28,462.99 492.42,475.81 C497.63,506.96 514.88,536.33 545.92,566.92 C551.74,572.65 565.95,585.41 577.50,595.27 C600.94,615.28 621.14,634.70 630.28,646.00 C661.93,685.14 669.60,723.51 651.15,750.42 C643.85,761.06 637.43,772.67 633.49,782.36 L630.30,790.23 L626.06,782.36 Z M689.60,697.62 C686.54,685.95 677.69,666.90 670.10,655.64 C663.45,645.80 651.62,631.60 645.78,626.45 L641.19,622.42 L655.35,611.83 C710.60,570.49 744.04,532.25 756.19,496.50 C765.28,469.77 765.35,444.84 756.43,417.87 C749.79,397.81 736.07,374.83 721.12,358.73 C718.69,356.11 716.88,353.78 717.11,353.55 C717.86,352.81 740.54,362.61 750.14,367.83 C805.89,398.12 843.22,448.41 851.07,503.78 C852.59,514.55 851.72,541.06 849.52,551.00 C839.29,597.14 810.76,632.44 757.23,665.20 C749.13,670.16 736.51,677.88 729.19,682.36 C721.87,686.84 710.57,694.38 704.06,699.12 L692.24,707.73 L689.60,697.62 Z M622.00,584.23 C561.01,534.34 535.24,498.20 533.24,459.73 C532.08,437.44 539.19,416.36 555.76,393.00 C564.06,381.31 591.99,352.95 611.77,336.13 C619.61,329.46 626.40,324.00 626.86,324.00 C628.65,324.00 656.34,348.20 670.83,362.44 C696.34,387.50 710.97,408.79 717.62,430.50 C720.13,438.68 720.38,440.91 720.37,455.00 C720.36,473.41 718.77,480.52 711.08,496.63 C702.17,515.27 688.40,532.90 665.77,554.63 C655.83,564.18 628.09,588.01 627.00,587.94 C626.73,587.92 624.48,586.25 622.00,584.23 Z" fill="url(#roseGrad)" fill-rule="evenodd"/>
</svg>